<svg width="271.45" height="36.35" viewBox="0 0 271.45 36.35" xmlns="http://www.w3.org/2000/svg"><g id="svgGroup" stroke-linecap="round" fill-rule="evenodd" font-size="9pt" stroke="#ffffff" stroke-width="0.1mm" fill="#ffffff" style="stroke:#ffffff;stroke-width:0.1mm;fill:#ffffff"><path d="M 97.9 23.05 L 92.1 36 L 83.25 36 L 81.5 11 L 90.1 11 L 90.25 24.55 L 96.25 11 L 104.75 11 L 105.35 24.7 L 110.9 11 L 119.5 11 L 107.8 36 L 98.6 36 L 97.9 23.05 Z M 0 8.3 L 1.45 1 L 31.9 1 L 30.45 8.3 L 19.55 8.3 L 14.05 36 L 5.35 36 L 10.85 8.3 L 0 8.3 Z M 133 36 L 137.95 11 L 145.35 11 L 145.4 13.85 Q 146.9 12.45 148.75 11.55 Q 150.6 10.65 152.6 10.65 Q 155.55 10.65 157.3 11.925 A 5.649 5.649 0 0 1 159.311 14.672 A 7.606 7.606 0 0 1 159.575 15.6 Q 160.1 18 159.45 21.4 L 156.55 36 L 148.35 36 L 151.05 22.4 A 9.854 9.854 0 0 0 151.154 21.712 Q 151.32 20.249 150.913 19.347 A 2.48 2.48 0 0 0 150.8 19.125 Q 150.223 18.126 148.739 18.014 A 5.174 5.174 0 0 0 148.35 18 Q 146.6 18 145.45 19.125 A 4.644 4.644 0 0 0 144.537 20.416 Q 144.113 21.281 143.9 22.45 L 141.2 36 L 133 36 Z M 183 14.9 L 181.8 14.9 L 184.75 0 L 192.95 0 L 185.8 36 L 178.4 36 L 178.55 32.85 Q 177.45 34.25 175.325 35.3 A 10.031 10.031 0 0 1 172.368 36.248 A 9.162 9.162 0 0 1 171 36.35 A 10.154 10.154 0 0 1 168.469 36.049 A 7.861 7.861 0 0 1 165.75 34.775 A 7.761 7.761 0 0 1 163.148 31.399 A 10.092 10.092 0 0 1 162.775 30.325 A 10.829 10.829 0 0 1 162.399 28.213 Q 162.226 26.087 162.75 23.5 A 21.182 21.182 0 0 1 163.837 19.781 A 16.552 16.552 0 0 1 165.5 16.625 A 14.839 14.839 0 0 1 168.174 13.613 A 12.978 12.978 0 0 1 170.2 12.2 Q 172.95 10.65 176.1 10.65 Q 178.445 10.65 180.044 11.559 A 5.712 5.712 0 0 1 180.575 11.9 A 7.609 7.609 0 0 1 182.063 13.299 A 6.284 6.284 0 0 1 183 14.9 Z M 209.55 23.85 L 202.15 23.85 L 199.7 36 L 191 36 L 198 1 L 214.1 1 A 19.088 19.088 0 0 1 216.849 1.186 Q 219.284 1.541 220.975 2.575 A 8.672 8.672 0 0 1 223.077 4.341 A 7.432 7.432 0 0 1 224.45 6.75 Q 225.283 9.155 224.832 11.945 A 13.594 13.594 0 0 1 224.75 12.4 A 13.092 13.092 0 0 1 223.356 16.179 A 16.386 16.386 0 0 1 222.3 17.85 A 13.792 13.792 0 0 1 218.538 21.396 A 16.741 16.741 0 0 1 217.2 22.175 A 14.221 14.221 0 0 1 213.204 23.53 A 19.801 19.801 0 0 1 209.55 23.85 Z M 45.2 36 L 37.55 36 L 37.6 32.9 Q 35.95 34.45 34.35 35.4 Q 32.869 36.279 30.703 36.345 A 11.684 11.684 0 0 1 30.35 36.35 Q 28.15 36.35 26.475 35.525 A 5.37 5.37 0 0 1 24.768 34.232 A 5.121 5.121 0 0 1 24.025 33.1 A 4.899 4.899 0 0 1 23.578 31.538 Q 23.483 30.751 23.596 29.846 A 9.458 9.458 0 0 1 23.7 29.2 Q 24.3 26.1 26.9 24.1 A 10.409 10.409 0 0 1 29.384 22.714 Q 30.557 22.243 31.982 21.934 A 23.801 23.801 0 0 1 34.35 21.55 L 40 20.95 L 40.3 19.5 Q 40.395 18.832 39.922 18.142 A 3.164 3.164 0 0 0 39.875 18.075 A 1.522 1.522 0 0 0 39.224 17.573 Q 38.72 17.357 37.948 17.35 A 5.708 5.708 0 0 0 37.9 17.35 Q 36.6 17.35 35.5 18.05 Q 34.4 18.75 33.8 20 L 27.3 17.5 A 13.426 13.426 0 0 1 29.837 14.148 A 11.879 11.879 0 0 1 32.25 12.375 A 13.511 13.511 0 0 1 36.771 10.854 A 17.641 17.641 0 0 1 39.5 10.65 A 16.653 16.653 0 0 1 42.179 10.85 Q 43.568 11.077 44.656 11.562 A 6.444 6.444 0 0 1 46.975 13.25 Q 48.92 15.523 48.477 19.285 A 14.455 14.455 0 0 1 48.3 20.4 L 45.2 36 Z M 65.05 36 L 72.2 0 L 80.4 0 L 73.25 36 L 65.05 36 Z M 223.85 36 L 228.85 11 L 236.3 11 L 236.2 14.4 Q 237.4 13.05 238.875 12.175 Q 240.35 11.3 242.1 10.975 A 9.529 9.529 0 0 1 243.843 10.819 Q 244.813 10.819 245.85 11 L 244.3 18.8 Q 243.05 18.4 241.525 18.55 A 7.884 7.884 0 0 0 239.333 19.102 A 9.599 9.599 0 0 0 238.475 19.5 A 7.563 7.563 0 0 0 236.613 20.895 A 9.689 9.689 0 0 0 235.75 21.9 Q 234.55 23.5 234.05 26.05 L 232.05 36 L 223.85 36 Z M 255.5 36.35 Q 251.8 36.35 249.2 34.8 Q 246.6 33.25 245.5 30.35 A 9.847 9.847 0 0 1 244.914 27.755 Q 244.733 25.807 245.2 23.5 A 16.407 16.407 0 0 1 246.68 19.085 A 14.441 14.441 0 0 1 248.225 16.675 Q 250.5 13.8 253.75 12.225 Q 257 10.65 260.7 10.65 A 14.516 14.516 0 0 1 263.732 10.952 A 10.68 10.68 0 0 1 267.025 12.225 Q 269.65 13.8 270.775 16.675 A 9.846 9.846 0 0 1 271.391 19.292 Q 271.533 20.712 271.334 22.328 A 18.199 18.199 0 0 1 271.15 23.5 A 16.743 16.743 0 0 1 269.509 28.13 A 14.96 14.96 0 0 1 268.05 30.35 Q 265.75 33.25 262.475 34.8 Q 259.2 36.35 255.5 36.35 Z M 50.9 36 L 55.85 11 L 64.05 11 L 59.1 36 L 50.9 36 Z M 118.85 36 L 123.8 11 L 132 11 L 127.05 36 L 118.85 36 Z M 203.6 16.55 L 210.45 16.55 A 8.498 8.498 0 0 0 211.704 16.462 Q 212.384 16.361 212.96 16.141 A 5.041 5.041 0 0 0 213.125 16.075 Q 214.25 15.6 214.95 14.65 Q 215.65 13.7 215.9 12.4 A 5.748 5.748 0 0 0 215.988 11.808 Q 216.071 10.924 215.825 10.225 Q 215.5 9.3 214.55 8.8 A 3.868 3.868 0 0 0 213.679 8.476 Q 212.97 8.3 212.05 8.3 L 205.2 8.3 L 203.6 16.55 Z M 59.025 9.021 A 6.354 6.354 0 0 0 60.35 9.15 A 7.593 7.593 0 0 0 60.42 9.15 A 6.127 6.127 0 0 0 64.275 7.825 A 6.909 6.909 0 0 0 64.721 7.441 A 5.343 5.343 0 0 0 66.35 4.6 A 5.615 5.615 0 0 0 66.388 4.357 Q 66.629 2.567 65.575 1.325 A 3.361 3.361 0 0 0 64.869 0.698 Q 64.27 0.3 63.469 0.129 A 6.324 6.324 0 0 0 62.15 0 A 7.739 7.739 0 0 0 61.792 0.008 A 6.136 6.136 0 0 0 58.175 1.325 A 6.713 6.713 0 0 0 57.921 1.536 A 5.202 5.202 0 0 0 56.15 4.6 A 5.109 5.109 0 0 0 56.096 4.903 Q 55.843 6.607 56.9 7.825 A 3.455 3.455 0 0 0 57.585 8.431 Q 58.201 8.845 59.025 9.021 Z M 126.975 9.021 A 6.354 6.354 0 0 0 128.3 9.15 A 7.593 7.593 0 0 0 128.37 9.15 A 6.127 6.127 0 0 0 132.225 7.825 A 6.909 6.909 0 0 0 132.671 7.441 A 5.343 5.343 0 0 0 134.3 4.6 A 5.615 5.615 0 0 0 134.338 4.357 Q 134.579 2.567 133.525 1.325 A 3.361 3.361 0 0 0 132.819 0.698 Q 132.22 0.3 131.419 0.129 A 6.324 6.324 0 0 0 130.1 0 A 7.739 7.739 0 0 0 129.742 0.008 A 6.136 6.136 0 0 0 126.125 1.325 A 6.713 6.713 0 0 0 125.871 1.536 A 5.202 5.202 0 0 0 124.1 4.6 A 5.109 5.109 0 0 0 124.046 4.903 Q 123.793 6.607 124.85 7.825 A 3.455 3.455 0 0 0 125.535 8.431 Q 126.151 8.845 126.975 9.021 Z M 256.95 28.9 A 4.305 4.305 0 0 0 258.531 28.59 A 5.437 5.437 0 0 0 259.15 28.3 A 5.348 5.348 0 0 0 260.457 27.285 A 6.958 6.958 0 0 0 261.1 26.5 Q 261.925 25.335 262.279 23.605 A 10.979 10.979 0 0 0 262.3 23.5 Q 262.568 22.122 262.426 21.096 A 4.172 4.172 0 0 0 262.3 20.5 A 4.114 4.114 0 0 0 261.954 19.654 A 2.894 2.894 0 0 0 261.125 18.7 A 3.14 3.14 0 0 0 259.404 18.105 A 3.898 3.898 0 0 0 259.2 18.1 A 4.167 4.167 0 0 0 257.412 18.512 A 5.088 5.088 0 0 0 257.05 18.7 A 5.037 5.037 0 0 0 255.849 19.669 A 6.703 6.703 0 0 0 255.2 20.5 Q 254.4 21.7 254.05 23.5 A 11.179 11.179 0 0 0 253.921 24.315 Q 253.771 25.583 254 26.5 A 4.116 4.116 0 0 0 254.292 27.316 Q 254.544 27.83 254.928 28.177 A 2.514 2.514 0 0 0 255.075 28.3 Q 255.85 28.9 256.95 28.9 Z M 171.6 23.5 Q 171.1 25.85 172 27.275 A 2.928 2.928 0 0 0 174.123 28.65 A 4.393 4.393 0 0 0 174.8 28.7 Q 176 28.7 177.075 28.1 A 5.331 5.331 0 0 0 178.471 26.961 A 6.673 6.673 0 0 0 178.95 26.35 A 6.571 6.571 0 0 0 179.673 24.973 Q 179.92 24.339 180.079 23.599 A 10.795 10.795 0 0 0 180.1 23.5 Q 180.4 21.8 180.075 20.65 A 3.669 3.669 0 0 0 179.673 19.716 A 2.966 2.966 0 0 0 178.9 18.875 A 3.216 3.216 0 0 0 177.183 18.26 A 4.037 4.037 0 0 0 176.9 18.25 Q 175.6 18.25 174.525 18.9 Q 173.45 19.55 172.675 20.725 A 6.942 6.942 0 0 0 171.862 22.45 A 8.792 8.792 0 0 0 171.6 23.5 Z M 38.95 26.05 L 39.05 25.55 L 35.1 26 A 4.508 4.508 0 0 0 34.17 26.218 A 3.321 3.321 0 0 0 33.2 26.75 A 2.669 2.669 0 0 0 32.644 27.344 A 2.208 2.208 0 0 0 32.3 28.2 A 1.786 1.786 0 0 0 32.26 28.444 Q 32.201 29.073 32.661 29.52 A 1.762 1.762 0 0 0 32.75 29.6 A 2.046 2.046 0 0 0 33.414 29.966 Q 33.948 30.15 34.7 30.15 Q 35.7 30.15 36.575 29.675 A 4.224 4.224 0 0 0 37.832 28.623 A 5.097 5.097 0 0 0 38.075 28.3 A 4.893 4.893 0 0 0 38.633 27.217 Q 38.82 26.716 38.935 26.129 A 8.264 8.264 0 0 0 38.95 26.05 Z" vector-effect="non-scaling-stroke"/></g></svg>