<svg width="258.3" height="37.251" viewBox="0 0 258.3 37.251" xmlns="http://www.w3.org/2000/svg"><g id="svgGroup" stroke-linecap="round" fill-rule="evenodd" font-size="9pt" stroke="#ff0000" stroke-width="0.7mm" fill="#e5ff00" style="stroke:#ff0000;stroke-width:0.7mm;fill:#e5ff00"><path d="M 103.95 36.75 L 97.15 24 L 90.35 36.75 L 89.4 36.75 L 79.75 13.8 L 85.55 13.8 L 90.5 27.15 L 97.05 13.8 L 97.25 13.8 L 103.85 27.05 L 108.8 13.8 L 114.5 13.8 L 104.9 36.75 L 103.95 36.75 Z M 178.95 18.05 L 178.7 14.15 L 178.7 0 L 184 0 L 184 36.75 L 178.85 36.75 L 178.75 32.7 A 6.247 6.247 0 0 1 177.55 34.394 Q 176.969 34.989 176.191 35.525 A 11.88 11.88 0 0 1 175.65 35.875 A 9.436 9.436 0 0 1 170.861 37.247 A 11.25 11.25 0 0 1 170.6 37.25 Q 167.5 37.25 164.875 35.775 Q 162.25 34.3 160.675 31.575 A 11.649 11.649 0 0 1 159.254 27.391 A 15.112 15.112 0 0 1 159.1 25.2 A 15.794 15.794 0 0 1 159.52 21.455 A 10.978 10.978 0 0 1 162.15 16.475 A 10.091 10.091 0 0 1 168.154 13.368 A 14.435 14.435 0 0 1 170.4 13.2 Q 173.3 13.2 175.7 14.625 Q 178.1 16.05 178.95 18.05 Z M 131.7 36.75 L 131.7 13.8 L 137 13.8 L 137.05 18 A 8.002 8.002 0 0 1 139.798 14.722 A 9.602 9.602 0 0 1 140.05 14.55 Q 142.1 13.2 144.85 13.2 A 13.73 13.73 0 0 1 146.908 13.344 Q 147.983 13.508 148.852 13.857 A 5.981 5.981 0 0 1 150.3 14.675 A 6.863 6.863 0 0 1 152.506 17.697 A 9.049 9.049 0 0 1 152.85 18.8 Q 153.287 20.581 153.43 23.084 A 45.912 45.912 0 0 1 153.5 25.7 L 153.5 36.75 L 148.1 36.75 L 148.1 25.85 Q 148.1 21.5 147.25 19.575 Q 146.4 17.65 143.75 17.65 A 5.331 5.331 0 0 0 141.867 18.007 A 7.259 7.259 0 0 0 140.7 18.575 A 7.03 7.03 0 0 0 138.67 20.427 A 8.742 8.742 0 0 0 138.125 21.25 Q 137.1 23 137.1 25.35 L 137.1 36.75 L 131.7 36.75 Z M 9.4 36.75 L 9.4 4.9 L 0 4.9 L 0 0 L 24.45 0 L 24.45 4.9 L 14.95 4.9 L 14.95 36.75 L 9.4 36.75 Z M 191.5 36.75 L 191.5 0 L 199.6 0 Q 203.681 0 206.457 1.038 A 9.544 9.544 0 0 1 209.625 2.925 Q 212.8 5.85 212.8 10.95 Q 212.8 15.859 210.412 18.865 A 9.755 9.755 0 0 1 209.35 20 Q 206.6 22.512 201.72 23.021 A 25.269 25.269 0 0 1 199.1 23.15 L 197.15 23.15 L 197.15 36.75 L 191.5 36.75 Z M 43.75 17.65 L 43.85 13.8 L 49 13.8 L 49 36.75 L 43.9 36.75 L 43.8 32.7 A 6.247 6.247 0 0 1 42.6 34.394 Q 42.019 34.989 41.241 35.525 A 11.88 11.88 0 0 1 40.7 35.875 A 9.436 9.436 0 0 1 35.911 37.247 A 11.25 11.25 0 0 1 35.65 37.25 Q 32.55 37.25 29.925 35.775 Q 27.3 34.3 25.725 31.575 A 11.649 11.649 0 0 1 24.304 27.391 A 15.112 15.112 0 0 1 24.15 25.2 Q 24.15 21.6 25.525 18.9 Q 26.9 16.2 29.45 14.7 A 10.768 10.768 0 0 1 33.332 13.354 A 14.088 14.088 0 0 1 35.45 13.2 A 10.111 10.111 0 0 1 38.731 13.727 A 9.549 9.549 0 0 1 39.2 13.9 A 12.072 12.072 0 0 1 40.813 14.682 A 9.213 9.213 0 0 1 42.15 15.625 A 8.105 8.105 0 0 1 42.877 16.323 Q 43.22 16.699 43.453 17.072 A 3.64 3.64 0 0 1 43.75 17.65 Z M 70.2 36.75 L 70.2 0 L 75.55 0 L 75.55 36.75 L 70.2 36.75 Z M 217.5 36.75 L 217.5 13.8 L 222.9 13.8 L 222.9 18.3 A 8.154 8.154 0 0 1 224.324 15.736 A 7.568 7.568 0 0 1 225.5 14.6 Q 227.3 13.2 229.6 13.2 A 13.47 13.47 0 0 1 230.316 13.218 Q 231.345 13.273 231.8 13.5 L 231.05 18.95 A 1.151 1.151 0 0 0 230.759 18.819 Q 230.277 18.667 229.312 18.652 A 13.887 13.887 0 0 0 229.1 18.65 Q 226.75 18.65 224.825 20.15 A 4.681 4.681 0 0 0 223.243 22.486 Q 222.9 23.558 222.9 24.95 L 222.9 36.75 L 217.5 36.75 Z M 242.656 36.772 A 13.411 13.411 0 0 0 246.3 37.25 Q 249.85 37.25 252.575 35.65 Q 255.3 34.05 256.8 31.3 A 12.023 12.023 0 0 0 257.591 29.523 A 12.957 12.957 0 0 0 258.3 25.2 A 14.653 14.653 0 0 0 258.299 24.995 A 12.551 12.551 0 0 0 256.825 19.15 Q 255.35 16.4 252.625 14.8 Q 249.9 13.2 246.3 13.2 Q 242.7 13.2 239.95 14.8 Q 237.2 16.4 235.725 19.15 Q 234.25 21.9 234.25 25.2 Q 234.25 28.55 235.75 31.3 Q 237.25 34.05 240 35.65 A 11.388 11.388 0 0 0 242.656 36.772 Z M 56.65 36.75 L 56.65 13.8 L 62.25 13.8 L 62.25 36.75 L 56.65 36.75 Z M 118.6 36.75 L 118.6 13.8 L 124.2 13.8 L 124.2 36.75 L 118.6 36.75 Z M 178.25 25.55 L 178.25 25.2 Q 178.25 23.05 177.35 21.35 A 6.879 6.879 0 0 0 175.678 19.258 A 6.574 6.574 0 0 0 174.9 18.7 Q 173.35 17.75 171.5 17.75 A 7.897 7.897 0 0 0 169.429 18.007 A 5.586 5.586 0 0 0 166.55 19.825 A 7.249 7.249 0 0 0 165.007 23.076 A 10.377 10.377 0 0 0 164.8 25.2 Q 164.8 28.485 166.458 30.544 A 6.792 6.792 0 0 0 166.525 30.625 A 5.588 5.588 0 0 0 169.837 32.545 A 8.467 8.467 0 0 0 171.5 32.7 A 6.769 6.769 0 0 0 174.311 32.126 A 6.585 6.585 0 0 0 176.3 30.725 Q 178.25 28.75 178.25 25.55 Z M 43.3 25.6 L 43.3 25.25 Q 43.3 23.1 42.4 21.4 A 6.879 6.879 0 0 0 40.728 19.308 A 6.574 6.574 0 0 0 39.95 18.75 Q 38.4 17.8 36.55 17.8 A 7.897 7.897 0 0 0 34.479 18.057 A 5.586 5.586 0 0 0 31.6 19.875 A 7.249 7.249 0 0 0 30.057 23.126 A 10.377 10.377 0 0 0 29.85 25.25 Q 29.85 28.535 31.508 30.594 A 6.792 6.792 0 0 0 31.575 30.675 A 5.588 5.588 0 0 0 34.887 32.595 A 8.467 8.467 0 0 0 36.55 32.75 A 6.769 6.769 0 0 0 39.361 32.176 A 6.585 6.585 0 0 0 41.35 30.775 Q 43.3 28.8 43.3 25.6 Z M 246.45 32.85 A 6.274 6.274 0 0 0 248.585 32.502 A 5.349 5.349 0 0 0 251.025 30.7 Q 252.7 28.55 252.7 25.3 A 9.709 9.709 0 0 0 252.337 22.587 A 7.796 7.796 0 0 0 250.9 19.825 A 5.738 5.738 0 0 0 246.737 17.623 A 7.386 7.386 0 0 0 246.15 17.6 Q 243.312 17.6 241.59 19.781 A 6.95 6.95 0 0 0 241.575 19.8 A 7.973 7.973 0 0 0 240.01 23.392 A 10.928 10.928 0 0 0 239.85 25.3 A 9.143 9.143 0 0 0 240.228 27.985 A 7.489 7.489 0 0 0 241.7 30.675 A 5.906 5.906 0 0 0 245.998 32.837 A 7.417 7.417 0 0 0 246.45 32.85 Z M 197.15 18.2 L 199.25 18.2 A 15.564 15.564 0 0 0 201.393 18.064 Q 203.802 17.728 205.087 16.564 A 4.278 4.278 0 0 0 205.4 16.25 A 6.788 6.788 0 0 0 207.15 11.572 A 8.597 8.597 0 0 0 207.15 11.55 A 8.368 8.368 0 0 0 206.891 9.414 A 6.208 6.208 0 0 0 205.45 6.75 A 4.961 4.961 0 0 0 203.606 5.519 Q 202.792 5.193 201.764 5.038 A 13.625 13.625 0 0 0 199.75 4.9 L 197.15 4.9 L 197.15 18.2 Z M 59.4 9.5 Q 57.85 9.5 56.8 8.45 A 3.523 3.523 0 0 1 55.75 5.899 A 4.541 4.541 0 0 1 55.75 5.85 Q 55.75 4.45 56.8 3.45 A 3.591 3.591 0 0 1 59.232 2.453 A 4.681 4.681 0 0 1 59.4 2.45 Q 60.9 2.45 61.95 3.45 Q 63 4.45 63 5.85 Q 63 7.4 61.975 8.45 Q 60.95 9.5 59.4 9.5 Z M 121.35 9.5 Q 119.8 9.5 118.75 8.45 A 3.523 3.523 0 0 1 117.7 5.899 A 4.541 4.541 0 0 1 117.7 5.85 Q 117.7 4.45 118.75 3.45 A 3.591 3.591 0 0 1 121.182 2.453 A 4.681 4.681 0 0 1 121.35 2.45 Q 122.85 2.45 123.9 3.45 Q 124.95 4.45 124.95 5.85 Q 124.95 7.4 123.925 8.45 Q 122.9 9.5 121.35 9.5 Z" vector-effect="non-scaling-stroke"/></g></svg>